<svg id="Livello_1" data-name="Livello 1" xmlns="http://www.w3.org/2000/svg" viewBox="0 0 270.23 69.26"><defs><style>.cls-1{fill:#e8e100;}.cls-2{fill:#1d1d1b;}</style></defs><title>marchio-vettoriale-eng</title><path class="cls-1" d="M546.06,313.52a6.36,6.36,0,0,1,0-8.78,6,6,0,0,1,8.57,0,6.36,6.36,0,0,1,0,8.78,6,6,0,0,1-8.57,0Z" transform="translate(-286.16 -264.24)"/><path class="cls-1" d="M332.39,315H286.16V303.2h46.23" transform="translate(-286.16 -264.24)"/><path class="cls-2" d="M363.58,316.12a15.26,15.26,0,0,1-3.88-.45,14.58,14.58,0,0,1-3.1-1.19,11.85,11.85,0,0,1-2.51-1.75,21.67,21.67,0,0,1-2-2.06v4.61H338.71v-51h13.36L352,282.49a24.62,24.62,0,0,1,2.09-2.24,13.53,13.53,0,0,1,2.49-1.85,13.13,13.13,0,0,1,3.07-1.3,14.13,14.13,0,0,1,3.81-.49,15.43,15.43,0,0,1,6.4,1.37,16.15,16.15,0,0,1,5.35,3.88,18.73,18.73,0,0,1,3.67,6.15,23.16,23.16,0,0,1,1.37,8.18v.14a23.9,23.9,0,0,1-1.36,8.29,19.59,19.59,0,0,1-3.63,6.23,15.58,15.58,0,0,1-5.3,3.91A15.4,15.4,0,0,1,363.58,316.12ZM359.44,305a7.24,7.24,0,0,0,5.5-2.37,8.73,8.73,0,0,0,2.23-6.23v-.14a8.63,8.63,0,0,0-2.23-6.15,7.5,7.5,0,0,0-8.49-1.75,7.35,7.35,0,0,0-2.44,1.78,8.55,8.55,0,0,0-1.63,2.7,9.3,9.3,0,0,0-.59,3.42v.14a9.72,9.72,0,0,0,.59,3.47,8.53,8.53,0,0,0,1.63,2.72,7.15,7.15,0,0,0,5.43,2.41Z" transform="translate(-286.16 -264.24)"/><path class="cls-2" d="M383,264.24h13.35v51H383Z" transform="translate(-286.16 -264.24)"/><path class="cls-2" d="M419.24,316.2a22.64,22.64,0,0,1-8.19-1.44,19,19,0,0,1-6.39-4,17.65,17.65,0,0,1-4.2-6.18,21,21,0,0,1-1.5-8v-.14a21,21,0,0,1,1.4-7.72,18.9,18.9,0,0,1,3.95-6.3,18.6,18.6,0,0,1,6-4.23,19,19,0,0,1,7.7-1.54,19.91,19.91,0,0,1,8.49,1.68,16.78,16.78,0,0,1,5.95,4.51,19,19,0,0,1,3.49,6.57,26.84,26.84,0,0,1,1.16,7.94v1.33c0,.47,0,.93-.07,1.4H411.75a7.76,7.76,0,0,0,2.91,4.68,8.76,8.76,0,0,0,5.28,1.55,10.37,10.37,0,0,0,4.37-.92,14.2,14.2,0,0,0,4-2.93l7.34,6.08a19.76,19.76,0,0,1-16.43,7.7Zm5.45-22.94a8.34,8.34,0,0,0-2.1-5,5.85,5.85,0,0,0-4.47-1.86,5.58,5.58,0,0,0-4.34,1.86,9.86,9.86,0,0,0-2.24,5Z" transform="translate(-286.16 -264.24)"/><path class="cls-2" d="M449.29,296.19l-12.52-18.74h14.34l5.6,9.3,5.59-9.3h14.05l-12.44,18.67,12.72,19.16H462.37l-5.88-9.72-5.94,9.72h-14Z" transform="translate(-286.16 -264.24)"/><path class="cls-2" d="M481,277.45h13.35v37.83H481Z" transform="translate(-286.16 -264.24)"/><path class="cls-2" d="M500.66,277.45H514v5.32a23.72,23.72,0,0,1,2-2.31,12.53,12.53,0,0,1,2.48-2,14.2,14.2,0,0,1,3-1.36,12.12,12.12,0,0,1,3.66-.53q6.12,0,9.53,3.71t3.41,10.21v24.75H524.78V294.79a6.87,6.87,0,0,0-1.45-4.75,4.86,4.86,0,0,0-3.79-1.61,5.28,5.28,0,0,0-4,1.61,6.57,6.57,0,0,0-1.56,4.75v20.49H500.66Z" transform="translate(-286.16 -264.24)"/><path class="cls-2" d="M387.4,325.45h1.48v7.94H387.4Z" transform="translate(-286.16 -264.24)"/><path class="cls-2" d="M392.63,326.7H390v-1.25h6.73v1.25H394.1v6.69h-1.47Z" transform="translate(-286.16 -264.24)"/><path class="cls-2" d="M399.12,325.15a.94.94,0,0,1,.26.67,1.75,1.75,0,0,1-.05.4c0,.13-.1.32-.2.58l-.59,1.61h-.92l.45-1.75a.79.79,0,0,1-.39-.31,1,1,0,0,1-.14-.53.94.94,0,0,1,.26-.67.9.9,0,0,1,.66-.26A.93.93,0,0,1,399.12,325.15Z" transform="translate(-286.16 -264.24)"/><path class="cls-2" d="M401.7,333.24a3.68,3.68,0,0,1-1.36-.69l.51-1.15a3.89,3.89,0,0,0,1.2.63,4.38,4.38,0,0,0,1.42.25,2.44,2.44,0,0,0,1.32-.29.87.87,0,0,0,.44-.75.72.72,0,0,0-.25-.56,1.57,1.57,0,0,0-.61-.34c-.25-.09-.59-.18-1-.29a11.47,11.47,0,0,1-1.47-.43,2.42,2.42,0,0,1-1-.67,1.81,1.81,0,0,1-.4-1.24,2.12,2.12,0,0,1,.36-1.2,2.37,2.37,0,0,1,1.08-.86,4.36,4.36,0,0,1,1.76-.32,5.35,5.35,0,0,1,1.43.19,3.82,3.82,0,0,1,1.21.52l-.46,1.14a4.51,4.51,0,0,0-1.09-.46,4,4,0,0,0-1.1-.16,2.36,2.36,0,0,0-1.3.29.93.93,0,0,0-.43.79.68.68,0,0,0,.25.55,1.61,1.61,0,0,0,.62.34c.25.09.59.18,1,.29a9.71,9.71,0,0,1,1.45.42,2.45,2.45,0,0,1,1,.68,1.76,1.76,0,0,1,.4,1.22,2.06,2.06,0,0,1-.36,1.19,2.41,2.41,0,0,1-1.08.85,4.41,4.41,0,0,1-1.77.32A6.16,6.16,0,0,1,401.7,333.24Z" transform="translate(-286.16 -264.24)"/><path class="cls-2" d="M417.23,332.15v1.24h-6v-7.94h5.8v1.23h-4.32v2.07h3.83V330h-3.83v2.19Z" transform="translate(-286.16 -264.24)"/><path class="cls-2" d="M424,331.55h-4l-.78,1.84h-1.52l3.57-7.94h1.45l3.59,7.94h-1.55Zm-.49-1.16L422,326.92l-1.49,3.47Z" transform="translate(-286.16 -264.24)"/><path class="cls-2" d="M428.05,333.24a3.71,3.71,0,0,1-1.35-.69l.51-1.15a3.83,3.83,0,0,0,1.19.63,4.49,4.49,0,0,0,1.43.25,2.44,2.44,0,0,0,1.32-.29.87.87,0,0,0,.44-.75.75.75,0,0,0-.25-.56,1.61,1.61,0,0,0-.62-.34c-.25-.09-.59-.18-1-.29a12.54,12.54,0,0,1-1.47-.43,2.46,2.46,0,0,1-1-.67,1.81,1.81,0,0,1-.4-1.24,2.19,2.19,0,0,1,.35-1.2,2.42,2.42,0,0,1,1.08-.86,4.41,4.41,0,0,1,1.77-.32,5.35,5.35,0,0,1,1.43.19,3.92,3.92,0,0,1,1.21.52l-.47,1.14a4.45,4.45,0,0,0-1.08-.46,4,4,0,0,0-1.11-.16,2.32,2.32,0,0,0-1.29.29.91.91,0,0,0-.43.79.71.71,0,0,0,.24.55,1.69,1.69,0,0,0,.62.34c.25.09.59.18,1,.29a9.88,9.88,0,0,1,1.46.42,2.41,2.41,0,0,1,1,.68,1.76,1.76,0,0,1,.41,1.22,2.06,2.06,0,0,1-.36,1.19,2.41,2.41,0,0,1-1.08.85,4.48,4.48,0,0,1-1.77.32A6.18,6.18,0,0,1,428.05,333.24Z" transform="translate(-286.16 -264.24)"/><path class="cls-2" d="M437.76,330.58v2.81h-1.48v-2.78l-3.12-5.16h1.58l2.32,3.87,2.35-3.87h1.45Z" transform="translate(-286.16 -264.24)"/><path class="cls-2" d="M456.56,325.45l-2.63,7.94h-1.57l-2-5.88-2,5.88h-1.57l-2.63-7.94h1.53l2,6,2.05-6h1.37l2,6.07,2-6.07Z" transform="translate(-286.16 -264.24)"/><path class="cls-2" d="M457.76,325.45h1.48v7.94h-1.48Z" transform="translate(-286.16 -264.24)"/><path class="cls-2" d="M463,326.7h-2.63v-1.25h6.74v1.25h-2.64v6.69H463Z" transform="translate(-286.16 -264.24)"/><path class="cls-2" d="M475.26,325.45v7.94h-1.47V330h-4.11v3.41h-1.47v-7.94h1.47v3.28h4.11v-3.28Z" transform="translate(-286.16 -264.24)"/><path class="cls-2" d="M481.37,332.58a3.61,3.61,0,0,1-.91-2.65v-4.48h1.47v4.42c0,1.56.67,2.34,2,2.34s2-.78,2-2.34v-4.42h1.45v4.48a3.62,3.62,0,0,1-.92,2.65,3.43,3.43,0,0,1-2.55.92A3.5,3.5,0,0,1,481.37,332.58Z" transform="translate(-286.16 -264.24)"/><path class="cls-2" d="M490.16,333.24a3.77,3.77,0,0,1-1.36-.69l.51-1.15a4,4,0,0,0,1.2.63,4.43,4.43,0,0,0,1.42.25,2.44,2.44,0,0,0,1.32-.29.87.87,0,0,0,.44-.75.74.74,0,0,0-.24-.56,1.69,1.69,0,0,0-.62-.34c-.25-.09-.59-.18-1-.29a11.47,11.47,0,0,1-1.47-.43,2.32,2.32,0,0,1-1-.67,1.82,1.82,0,0,1-.41-1.24,2.12,2.12,0,0,1,.36-1.2,2.42,2.42,0,0,1,1.08-.86,4.36,4.36,0,0,1,1.76-.32,5.35,5.35,0,0,1,1.43.19,3.82,3.82,0,0,1,1.21.52l-.46,1.14a4.51,4.51,0,0,0-1.09-.46,4,4,0,0,0-1.1-.16,2.36,2.36,0,0,0-1.3.29.92.92,0,0,0-.42.79.71.71,0,0,0,.24.55,1.61,1.61,0,0,0,.62.34c.25.09.59.18,1,.29a9.71,9.71,0,0,1,1.45.42,2.45,2.45,0,0,1,1,.68,1.76,1.76,0,0,1,.4,1.22,2.13,2.13,0,0,1-.35,1.19,2.38,2.38,0,0,1-1.09.85,4.41,4.41,0,0,1-1.77.32A6.16,6.16,0,0,1,490.16,333.24Z" transform="translate(-286.16 -264.24)"/></svg>