<svg id="3268df96-d26b-48c5-b030-32561f0726e6" data-name="Design" xmlns="http://www.w3.org/2000/svg" viewBox="0 0 520 180"><defs><style>.\38 a68d0a5-53d6-44d6-b214-992405314d11{fill:#4d4d4d;}.\33 98dc568-e0b9-4f59-9070-871c34d95dce{fill:#12c7fd;}.\34 5eee00c-acd5-4085-9c75-274857de7947{fill:#666;}</style></defs><title>2016-03-03 DEVDAY LOGOTYPE</title><path class="8a68d0a5-53d6-44d6-b214-992405314d11" d="M56.68,123c-1.9,0-2.68-1.47-2.68-3.38V58.71c0-1.9.78-2.71,2.68-2.71H86.63L65.54,37H53.17C39.84,37,33,43.62,33,56.95v64.43C33,134.71,39.84,143,53.17,143H65.54l21.09-20H56.68Z"/><path class="398dc568-e0b9-4f59-9070-871c34d95dce" d="M141.94,37H86.73l21.09,19h30.6c1.9,0,3.58.8,3.58,2.71v60.92a3.5,3.5,0,0,1-3.58,3.38h-30.6L86.73,143h55.21c13.33,0,21.06-8.29,21.06-21.62V56.95C163,43.62,155.26,37,141.94,37Z"/><path class="398dc568-e0b9-4f59-9070-871c34d95dce" d="M232.75,79.84h15a1.29,1.29,0,0,0,1.44-1.44v-30A1.29,1.29,0,0,0,247.8,47h-15l-10.37-9.5h27.14c6.55,0,10.08,3.53,10.08,10.08V79.27c0,6.55-3.53,10.08-10.08,10.08H222.38Z"/><path class="8a68d0a5-53d6-44d6-b214-992405314d11" d="M301.48,37.51V47H277.94V58.17H297v9.36H277.94V79.84h23.54v9.5H267.57V37.51h33.91Z"/><path class="8a68d0a5-53d6-44d6-b214-992405314d11" d="M334.63,89.35h-12.1L306.91,37.51h11.38L328.72,77.9l10.44-40.39h11.09Z"/><path class="8a68d0a5-53d6-44d6-b214-992405314d11" d="M417.5,77.68l-3.24,11.66H403.32l16.49-51.84h12.53l16.49,51.84H437.45l-3.24-11.66H417.5Zm8.35-29.81-5.69,20.3h11.38Z"/><path class="8a68d0a5-53d6-44d6-b214-992405314d11" d="M460.37,89.35V71.42L444,37.51h11.23l10.44,23.18,10.44-23.18h11.09L470.74,71.42V89.35H460.37Z"/><polygon class="8a68d0a5-53d6-44d6-b214-992405314d11" points="217.2 89.35 217.2 37.51 227.56 47.01 227.56 79.84 217.2 89.35"/><path class="398dc568-e0b9-4f59-9070-871c34d95dce" d="M372.27,79.84h15a1.29,1.29,0,0,0,1.44-1.44v-30A1.29,1.29,0,0,0,387.31,47h-15l-10.37-9.5H389c6.55,0,10.08,3.53,10.08,10.08V79.27c0,6.55-3.53,10.08-10.08,10.08H361.9Z"/><polygon class="8a68d0a5-53d6-44d6-b214-992405314d11" points="356.71 89.35 356.71 37.51 367.08 47.01 367.08 79.84 356.71 89.35"/><path class="45eee00c-acd5-4085-9c75-274857de7947" d="M270.54,108.65v33.84h-3.48l-17.67-29.19v29.19h-3.1V108.65h3.76l17.39,28.76V108.65h3.1Z"/><path class="45eee00c-acd5-4085-9c75-274857de7947" d="M292.4,132.62L289,142.49h-3.48l12.08-33.84h3.85l12.08,33.84h-3.67l-3.43-9.87h-14Zm7-20.26-5.92,17.15h11.84Z"/><path class="45eee00c-acd5-4085-9c75-274857de7947" d="M344.53,108.65c4.28,0,6.58,2.3,6.58,6.58v7.43c0,4.28-2.3,6.58-6.58,6.58H331.84v13.25h-3.38V108.65h16.07Zm-0.19,17.48a3,3,0,0,0,3.38-3.38v-7.61a3,3,0,0,0-3.38-3.38h-12.5v14.38h12.5Z"/><path class="45eee00c-acd5-4085-9c75-274857de7947" d="M372.79,142.49c-4.28,0-6.58-2.3-6.58-6.58V115.23c0-4.28,2.3-6.58,6.58-6.58h10.39c4.28,0,6.58,2.3,6.58,6.58v20.68c0,4.28-2.3,6.58-6.58,6.58H372.79Zm-3.2-6.49a3,3,0,0,0,3.38,3.38h10a3,3,0,0,0,3.38-3.38V115.14a3,3,0,0,0-3.38-3.38H373a3,3,0,0,0-3.38,3.38V136Z"/><path class="45eee00c-acd5-4085-9c75-274857de7947" d="M409.17,108.65v30.74h16.26v3.1H405.79V108.65h3.38Z"/><path class="45eee00c-acd5-4085-9c75-274857de7947" d="M440.57,108.65H444v33.84h-3.38V108.65Z"/></svg>